<?xml version="1.0" encoding="UTF-8" standalone="no"?>
<!-- Created with Inkscape (http://www.inkscape.org/) -->

<svg
   xmlns:dc="http://purl.org/dc/elements/1.1/"
   xmlns:cc="http://creativecommons.org/ns#"
   xmlns:rdf="http://www.w3.org/1999/02/22-rdf-syntax-ns#"
   xmlns:svg="http://www.w3.org/2000/svg"
   xmlns="http://www.w3.org/2000/svg"
   xmlns:sodipodi="http://sodipodi.sourceforge.net/DTD/sodipodi-0.dtd"
   xmlns:inkscape="http://www.inkscape.org/namespaces/inkscape"
   width="259.02606"
   height="71.790878"
   viewBox="0 0 68.533979 18.99467"
   version="1.1"
   id="svg8"
   inkscape:version="0.92.4 (5da689c313, 2019-01-14)"
   sodipodi:docname="Logo.svg">
  <defs
     id="defs2" />
  <sodipodi:namedview
     id="base"
     pagecolor="#ffffff"
     bordercolor="#666666"
     borderopacity="1.0"
     inkscape:pageopacity="0"
     inkscape:pageshadow="2"
     inkscape:zoom="3.7570312"
     inkscape:cx="111.50681"
     inkscape:cy="71.617057"
     inkscape:document-units="mm"
     inkscape:current-layer="layer1"
     showgrid="false"
     showguides="false"
     inkscape:window-width="1920"
     inkscape:window-height="1138"
     inkscape:window-x="-8"
     inkscape:window-y="-8"
     inkscape:window-maximized="1"
     fit-margin-top="0"
     fit-margin-left="0"
     fit-margin-right="0"
     fit-margin-bottom="0"
     units="px"
     inkscape:pagecheckerboard="true" />
  <metadata
     id="metadata5">
    <rdf:RDF>
      <cc:Work
         rdf:about="">
        <dc:format>image/svg+xml</dc:format>
        <dc:type
           rdf:resource="http://purl.org/dc/dcmitype/StillImage" />
        <dc:title></dc:title>
      </cc:Work>
    </rdf:RDF>
  </metadata>
  <g
     inkscape:label="Layer 1"
     inkscape:groupmode="layer"
     id="layer1"
     transform="translate(-37.794398,-143.17531)">
    <path
       style="fill:#000000;stroke-width:16.82143402"
       d=""
       id="path222"
       inkscape:connector-curvature="0" />
    <path
       id="path777"
       d="m 40.040042,145.71299 c 3.320825,-1.0178 7.231656,-1.57487 8.474287,-1.81498 1.060389,-0.0304 1.087819,1.35953 0.360775,1.60067 -2.906271,0.58985 -6.968773,1.54663 -8.538424,1.86536 -0.950349,0.0965 -1.220282,-1.40776 -0.296638,-1.65109 z"
       inkscape:connector-curvature="0"
       style="stroke-width:0.01254115"
       sodipodi:nodetypes="cccccc" />
    <path
       style="stroke-width:0.01254115"
       d="m 46.435845,146.36152 c 0.0205,4.31771 0.295616,8.66991 -0.400396,12.95331 -0.65027,2.4359 -3.963448,3.7174 -6.026544,2.20209 -1.769144,-1.19098 -2.477204,-3.51981 -2.128034,-5.56182 -0.04399,-0.72707 0.07833,-2.10805 1.123974,-1.85797 0.873312,0.28135 0.909592,1.32065 0.496632,1.98507 -0.414156,1.49194 -0.193925,3.30857 0.998663,4.3904 1.408394,0.93962 3.587618,-0.0261 3.8789,-1.68283 0.653471,-2.03071 0.419417,-4.19086 0.548207,-6.28686 -0.01078,-2.21774 -0.15,-4.4319 -0.266072,-6.64585 0.158213,-0.91486 1.77505,-0.75259 1.750603,0.17458 0.0067,0.11006 0.02094,0.21959 0.02407,0.32988 z"
       id="path779"
       inkscape:connector-curvature="0" />
    <path
       style="stroke-width:0.01254115"
       d="m 48.418402,157.23413 c 0.01599,0.66084 0.390949,1.39119 1.071588,1.56484 0.789873,-0.0106 1.31718,-0.77598 1.460133,-1.48414 0.655134,-1.73548 0.998224,-3.5783 1.760649,-5.27498 0.620975,0.35478 0.364741,1.15192 0.41806,1.73195 0.05515,1.47011 -0.181408,2.94483 0.0085,4.41076 0.482447,0.46789 1.198688,-0.10525 1.297425,-0.64481 0.284287,-0.7528 0.649884,-1.47295 0.910224,-2.23509 0.509144,-0.50507 1.319419,0.28758 1.016136,0.86757 -0.287548,1.1756 -0.567498,2.49589 -1.57834,3.28032 -0.572788,0.47406 -1.467348,0.58319 -2.063412,0.0909 -0.733206,-0.59739 -0.825005,-1.63838 -0.850726,-2.51944 -0.0144,-2.61363 -0.04085,-5.25286 0.464539,-7.82879 0.312046,-0.76303 1.5027,-0.21786 1.268589,0.53946 -0.08352,0.76986 -0.163726,1.54005 -0.239631,2.3115 -0.158537,1.49918 -0.464072,2.98466 -0.97482,4.40477 -0.347128,1.07898 -0.609858,2.21054 -1.190825,3.19301 -0.783087,1.07738 -2.562342,1.13884 -3.4139,0.11553 -0.517837,-0.59629 -0.557082,-1.42813 -0.653848,-2.17426 -0.108814,-1.59203 0.20097,-3.17287 0.458461,-4.7362 0.220762,-1.06273 0.445605,-2.13132 0.734711,-3.1748 0.347012,-0.5616 1.419265,-0.19949 1.294987,0.4714 -0.39409,2.36271 -1.269917,4.66608 -1.198542,7.09046 z"
       id="path785"
       inkscape:connector-curvature="0" />
    <path
       style="stroke-width:0.01254115"
       d="m 59.559969,150.64758 c -0.64402,-0.21906 -1.244779,0.21264 -1.800958,0.47604 -0.436526,0.34692 -0.08221,0.94135 0.311315,1.15059 0.390756,0.20415 0.806104,0.36055 1.17547,0.61006 1.226742,0.72108 2.328788,1.7969 2.711524,3.20594 0.370785,1.21364 0.08054,2.5612 -0.674685,3.56717 -0.868591,1.22549 -2.413932,2.02881 -3.928666,1.7521 -1.03578,-0.13651 -2.148045,-0.66532 -2.556907,-1.68681 -0.190879,-0.67797 0.636507,-1.46102 1.279335,-1.06011 0.640657,0.35809 1.311114,0.85085 2.089583,0.70344 1.371628,-0.12046 2.42927,-1.74874 1.828245,-3.02818 -0.500356,-1.10849 -1.439488,-1.95252 -2.419477,-2.63658 -0.760223,-0.47171 -1.711385,-0.88596 -2.014971,-1.80308 -0.156006,-0.72469 0.490571,-1.28964 1.063511,-1.59771 0.782893,-0.45217 1.587047,-0.9642 2.501716,-1.07708 0.556669,-0.0622 1.157629,0.19357 1.39791,0.72152 0.215856,0.34539 0.705912,0.8119 0.348514,1.21311 -0.481715,0.39641 -1.076484,-0.0647 -1.311459,-0.51042 z"
       id="path787"
       inkscape:connector-curvature="0" />
    <path
       style="stroke-width:0.01254115"
       d="m 65.927133,146.65473 c -0.452191,2.24788 -1.301308,4.41146 -1.522809,6.70556 -0.273662,1.67713 -0.481723,3.39378 -0.240297,5.08833 0.177234,0.56712 0.910375,0.59742 1.344876,0.32325 0.680468,-0.34891 0.850651,-1.22085 1.50161,-1.59526 0.68421,-0.31357 0.86981,0.74328 0.471835,1.13346 -0.586355,0.74876 -1.051323,1.65425 -1.901479,2.14677 -0.789343,0.49896 -1.907694,0.23076 -2.40419,-0.55313 -0.462672,-0.67741 -0.266391,-1.54122 -0.308476,-2.30925 0.04212,-2.44016 0.236142,-4.87957 0.667422,-7.28335 0.236949,-1.35662 0.507268,-2.70846 0.828776,-4.04743 0.159391,-0.65398 1.120691,-1.15033 1.561368,-0.47618 0.181899,0.24859 0.231143,0.63068 0.0014,0.86723 z"
       id="path789"
       inkscape:connector-curvature="0" />
    <path
       style="stroke-width:0.01254115"
       d="m 63.628708,147.99849 c 1.049914,-0.21611 2.102761,-0.43293 3.16767,-0.55867 0.565282,-0.0365 1.505192,0.0166 1.644452,0.40191 0.316751,1.13356 -0.590758,1.10316 -2.521274,1.53882 -1.246941,0.28823 -2.487446,0.57283 -3.719949,0.8257 -0.554233,0.0834 -1.083165,0.27444 -1.618678,0.42966 -0.386479,0.10243 -0.850692,-0.0702 -0.968716,-0.47652 -0.140181,-0.38547 0.06373,-0.87827 0.47286,-0.99187 1.17258,-0.41133 2.530542,-0.86265 3.543635,-1.16903 z"
       id="path791"
       inkscape:connector-curvature="0"
       sodipodi:nodetypes="ccccccccc" />
    <path
       style="stroke-width:0.01254115"
       d="m 77.377201,152.48914 c 0.507871,-0.62815 0.565115,-2.04387 -0.231335,-2.32856 -0.991374,-0.18324 -2.235465,3.2113 -2.494984,5.26521 -0.107349,2.13313 0.311657,3.48771 0.883921,3.94954 1.345243,0.0823 1.82217,-3.21309 2.104694,-4.28733 0.772399,-3.33177 1.576331,-6.68592 1.715506,-10.11718 -0.347861,-0.38408 0.244444,-1.66042 0.668007,-0.76438 0.162729,0.30689 0.816584,-0.11799 0.348161,0.40704 -0.838992,2.08236 -0.76848,4.36446 -0.77622,6.56671 -0.09854,2.28737 -0.0126,4.59142 0.394426,6.84781 0.596421,0.47582 1.723271,-0.85081 1.961778,0.32382 0.219936,1.00657 -0.848039,1.84654 -1.790868,1.77429 -1.036194,-0.0309 -1.788799,-0.99098 -1.919694,-1.9612 -0.509141,-2.28724 -0.375034,-4.67583 -0.314661,-6.99445 0.118791,-1.88552 0.39611,-3.65311 0.930666,-5.48971 0.258871,-0.84913 0.494333,-2.18381 1.133683,-2.45085 0.89135,-0.28348 1.106392,0.59157 1.114548,1.36809 -0.288798,1.93388 -0.467923,3.6447 -0.739108,5.55392 -0.446877,2.56408 -0.683592,5.35605 -1.566046,7.80829 -0.57395,1.30066 -1.474965,2.6577 -2.905693,3.08276 -1.037829,0.0995 -2.327427,-0.94963 -2.465734,-1.8947 -0.525015,-2.26275 -0.652206,-3.98912 0.467386,-7.03149 0.980025,-2.46752 1.33821,-2.5139 2.294506,-3.17598 1.124842,-0.32996 1.820263,-0.1189 2.259887,0.63189 0.5023,0.68082 0.589152,1.64547 0.205052,2.40104 -0.136285,0.6252 -0.396318,1.57801 -1.082643,1.62531 -0.385056,-0.0249 -0.509781,-0.76532 -0.195235,-1.10989 z"
       id="path797"
       inkscape:connector-curvature="0"
       sodipodi:nodetypes="ccccccccccccccccccccccccccc" />
    <path
       style="stroke-width:0.01254115"
       d="m 82.318297,157.4855 c 0.405244,1.54509 1.519049,1.16097 2.064139,0.87924 2.346691,-1.8004 3.318758,-7.46509 2.098253,-8.01826 -0.892282,-0.74743 -2.492977,0.0924 -3.527662,3.17638 -1.562484,1.77178 0.142203,-3.11009 1.774412,-4.28134 0.585505,-0.3005 1.191117,-0.79625 1.890601,-0.64028 0.763936,0.27057 1.222276,0.77863 1.286792,1.88308 0.217371,1.39862 -0.105721,2.79499 -0.271412,3.69004 -0.434556,1.93371 -1.289196,4.33628 -2.603041,5.35685 -1.103529,0.86698 -2.217525,0.81235 -3.085127,0.0584 -0.820523,-0.7312 -0.926419,-1.91425 -0.850533,-2.94565 -0.05286,-1.46042 0.06707,-2.27404 0.383891,-3.57156 0.314209,-0.93664 1.142294,-2.68847 1.986013,-3.73942 0.39476,-0.40316 0.823185,-0.16397 0.729816,0.32211 -1.256913,3.34063 -2.07764,4.40213 -1.876142,7.83043 z"
       id="path799"
       inkscape:connector-curvature="0"
       sodipodi:nodetypes="ccccccccccccccc" />
    <path
       style="stroke-width:0.01254115"
       d="m 96.59548,149.28689 c -0.123495,1.91731 -0.442336,3.8183 -0.493458,5.74109 -0.07172,1.30931 -0.138455,1.79235 -0.159875,3.10339 -0.04629,2.25637 1.400028,0.46609 1.876389,-1.26579 0.492019,-1.09732 1.307183,-0.66174 1.315551,0.0328 0.05652,0.80226 -0.125049,1.6203 -0.563185,2.30216 -0.540428,0.88188 -1.359182,1.73821 -2.430144,1.89362 -1.365956,-0.10348 -2.154202,-1.4019 -2.159443,-2.42494 0.164045,-3.17362 0.304798,-6.36061 0.863055,-9.49508 -0.06668,-0.73449 1.018827,-1.23272 1.504554,-0.65372 0.194417,0.19892 0.291449,0.49104 0.246556,0.76644 z"
       id="path801"
       inkscape:connector-curvature="0"
       sodipodi:nodetypes="ccccccccccc" />
    <path
       style="stroke-width:0.01254115"
       d="m 103.32639,146.66808 c -0.74238,2.44003 -0.78559,5.01264 -1.20941,7.51251 -0.14401,1.50395 -0.21828,3.01537 -0.19781,4.52635 1.03158,-0.57173 1.2464,-1.99149 2.36298,-2.45263 0.72712,-0.21233 1.401,0.63043 1.09592,1.30534 -0.25551,0.94476 -0.96244,1.67449 -1.60541,2.37672 -0.68084,0.65604 -1.7391,1.20226 -2.66779,0.73554 -1.02304,-0.52788 -1.397172,-1.77813 -1.300368,-2.85959 -0.0073,-4.03759 0.868178,-8.05074 2.368268,-11.79034 0.37294,-0.58052 1.60673,-0.0155 1.15362,0.6461 z"
       id="path805"
       inkscape:connector-curvature="0" />
    <path
       style="stroke-width:0.01254115"
       d="m 98.913889,149.18239 c 1.662041,-0.82326 3.541521,-0.99288 5.364231,-1.12473 0.58181,-0.0419 1.24333,-0.21771 1.75782,0.15446 0.40754,0.32227 0.40498,1.09869 -0.10804,1.31602 -0.51439,0.23995 -1.09814,0.17093 -1.64418,0.26859 -1.46222,0.1339 -2.98122,0.19197 -4.332136,0.82932 -0.380251,0.20448 -0.890061,0.36072 -1.270923,0.0719 -0.53009,-0.36465 -0.405872,-1.34452 0.233228,-1.51554 z"
       id="path807"
       inkscape:connector-curvature="0" />
    <ellipse
       id="path873"
       cx="122.31792"
       cy="130.58533"
       rx="1.3388134"
       ry="1.9742877"
       style="stroke-width:0.01438428"
       transform="matrix(0.98996595,0.14130613,-0.19033985,0.98171826,0,0)" />
  </g>
</svg>
